name p9_grf_mean_speed_1.2
datacolumns 13
datarows 63
range 0.0000000000 0.6200000000
endheader
time	grf_x_l_mean	grf_x_l_var	grf_y_l_mean	grf_y_l_var	grf_z_l_mean	grf_z_l_var	grf_x_r_mean	grf_x_r_var	grf_y_r_mean	grf_y_r_var	grf_z_r_mean	grf_z_r_var
0.0000000000	94.9579697171	1.0000000000	740.9482754227	1.0000000000	0.0000000000	0.0000000000	13.4287606040	1.0000000000	10.9137115193	1.0000000000	0.0000000000	0.0000000000
0.0100000000	102.6521814578	1.0000000000	730.5313993077	1.0000000000	0.0000000000	0.0000000000	23.8543929242	1.0000000000	42.5824735309	1.0000000000	0.0000000000	0.0000000000
0.0200000000	111.4982927816	1.0000000000	712.9550166537	1.0000000000	0.0000000000	0.0000000000	32.2303826688	1.0000000000	94.5634161401	1.0000000000	0.0000000000	0.0000000000
0.0300000000	120.3081868122	1.0000000000	686.1500910974	1.0000000000	0.0000000000	0.0000000000	29.8429594859	1.0000000000	166.8123367569	1.0000000000	0.0000000000	0.0000000000
0.0400000000	127.0919441396	1.0000000000	648.0927529637	1.0000000000	0.0000000000	0.0000000000	13.0073665158	1.0000000000	256.8362949841	1.0000000000	0.0000000000	0.0000000000
0.0500000000	131.2616893650	1.0000000000	597.8994173357	1.0000000000	0.0000000000	0.0000000000	-13.3673118923	1.0000000000	360.0273582989	1.0000000000	0.0000000000	0.0000000000
0.0600000000	131.4970303684	1.0000000000	536.1132992322	1.0000000000	0.0000000000	0.0000000000	-43.4077180175	1.0000000000	466.1888559753	1.0000000000	0.0000000000	0.0000000000
0.0700000000	126.3279195394	1.0000000000	463.8943410125	1.0000000000	0.0000000000	0.0000000000	-73.2601901290	1.0000000000	562.0742887932	1.0000000000	0.0000000000	0.0000000000
0.0800000000	115.2209951186	1.0000000000	384.3489717856	1.0000000000	0.0000000000	0.0000000000	-97.3450916686	1.0000000000	638.8894045310	1.0000000000	0.0000000000	0.0000000000
0.0900000000	98.8841827712	1.0000000000	302.7624674447	1.0000000000	0.0000000000	0.0000000000	-113.1347102019	1.0000000000	693.9648624161	1.0000000000	0.0000000000	0.0000000000
0.1000000000	77.7586088650	1.0000000000	224.5436994388	1.0000000000	0.0000000000	0.0000000000	-121.6505813398	1.0000000000	729.0954641890	1.0000000000	0.0000000000	0.0000000000
0.1100000000	54.9935695963	1.0000000000	154.6459915023	1.0000000000	0.0000000000	0.0000000000	-123.9892566923	1.0000000000	749.0272613945	1.0000000000	0.0000000000	0.0000000000
0.1200000000	34.2950023911	1.0000000000	97.3452368531	1.0000000000	0.0000000000	0.0000000000	-121.5440911493	1.0000000000	759.9445071782	1.0000000000	0.0000000000	0.0000000000
0.1300000000	18.1303879509	1.0000000000	54.3442206825	1.0000000000	0.0000000000	0.0000000000	-116.9620126868	1.0000000000	766.4732256321	1.0000000000	0.0000000000	0.0000000000
0.1400000000	7.6053959714	1.0000000000	24.7055809780	1.0000000000	0.0000000000	0.0000000000	-110.3512164966	1.0000000000	769.9008790559	1.0000000000	0.0000000000	0.0000000000
0.1500000000	2.0948296827	1.0000000000	6.7083006429	1.0000000000	0.0000000000	0.0000000000	-101.7840131313	1.0000000000	770.0070405952	1.0000000000	0.0000000000	0.0000000000
0.1600000000	0.0000000000	1.0000000000	0.0000000000	1.0000000000	0.0000000000	0.0000000000	-92.6044634876	1.0000000000	766.1012782481	1.0000000000	0.0000000000	0.0000000000
0.1700000000	0.0000000000	1.0000000000	0.0000000000	1.0000000000	0.0000000000	0.0000000000	-82.8495565120	1.0000000000	756.8140797817	1.0000000000	0.0000000000	0.0000000000
0.1800000000	0.0000000000	1.0000000000	0.0000000000	1.0000000000	0.0000000000	0.0000000000	-72.4242086244	1.0000000000	740.9131999257	1.0000000000	0.0000000000	0.0000000000
0.1900000000	0.0000000000	1.0000000000	0.0000000000	1.0000000000	0.0000000000	0.0000000000	-62.6467119898	1.0000000000	718.7600812146	1.0000000000	0.0000000000	0.0000000000
0.2000000000	0.0000000000	1.0000000000	0.0000000000	1.0000000000	0.0000000000	0.0000000000	-53.5776546127	1.0000000000	692.5125034879	1.0000000000	0.0000000000	0.0000000000
0.2100000000	0.0000000000	1.0000000000	0.0000000000	1.0000000000	0.0000000000	0.0000000000	-45.2007470926	1.0000000000	665.3351410640	1.0000000000	0.0000000000	0.0000000000
0.2200000000	0.0000000000	1.0000000000	0.0000000000	1.0000000000	0.0000000000	0.0000000000	-38.0134854233	1.0000000000	639.7878068255	1.0000000000	0.0000000000	0.0000000000
0.2300000000	0.0000000000	1.0000000000	0.0000000000	1.0000000000	0.0000000000	0.0000000000	-31.6403423293	1.0000000000	617.5548433306	1.0000000000	0.0000000000	0.0000000000
0.2400000000	0.0000000000	1.0000000000	0.0000000000	1.0000000000	0.0000000000	0.0000000000	-25.6334187548	1.0000000000	600.0985080638	1.0000000000	0.0000000000	0.0000000000
0.2500000000	0.0000000000	1.0000000000	0.0000000000	1.0000000000	0.0000000000	0.0000000000	-20.4786613845	1.0000000000	588.2057388929	1.0000000000	0.0000000000	0.0000000000
0.2600000000	0.0000000000	1.0000000000	0.0000000000	1.0000000000	0.0000000000	0.0000000000	-15.8559519633	1.0000000000	581.4532211415	1.0000000000	0.0000000000	0.0000000000
0.2700000000	0.0000000000	1.0000000000	0.0000000000	1.0000000000	0.0000000000	0.0000000000	-11.4635556751	1.0000000000	578.7239239220	1.0000000000	0.0000000000	0.0000000000
0.2800000000	0.0000000000	1.0000000000	0.0000000000	1.0000000000	0.0000000000	0.0000000000	-7.4354313798	1.0000000000	579.0329577989	1.0000000000	0.0000000000	0.0000000000
0.2900000000	0.0000000000	1.0000000000	0.0000000000	1.0000000000	0.0000000000	0.0000000000	-3.5630767698	1.0000000000	581.9214360092	1.0000000000	0.0000000000	0.0000000000
0.3000000000	0.0000000000	1.0000000000	0.0000000000	1.0000000000	0.0000000000	0.0000000000	0.4439015575	1.0000000000	586.8270435183	1.0000000000	0.0000000000	0.0000000000
0.3100000000	0.0000000000	1.0000000000	0.0000000000	1.0000000000	0.0000000000	0.0000000000	4.5406387059	1.0000000000	592.6833994841	1.0000000000	0.0000000000	0.0000000000
0.3200000000	0.0000000000	1.0000000000	0.0000000000	1.0000000000	0.0000000000	0.0000000000	8.9725950365	1.0000000000	599.2837148493	1.0000000000	0.0000000000	0.0000000000
0.3300000000	0.0000000000	1.0000000000	0.0000000000	1.0000000000	0.0000000000	0.0000000000	13.6687802455	1.0000000000	607.2953330344	1.0000000000	0.0000000000	0.0000000000
0.3400000000	0.0000000000	1.0000000000	0.0000000000	1.0000000000	0.0000000000	0.0000000000	18.4025589600	1.0000000000	616.6031079114	1.0000000000	0.0000000000	0.0000000000
0.3500000000	0.0000000000	1.0000000000	0.0000000000	1.0000000000	0.0000000000	0.0000000000	23.1651999512	1.0000000000	626.6054709368	1.0000000000	0.0000000000	0.0000000000
0.3600000000	0.0000000000	1.0000000000	0.0000000000	1.0000000000	0.0000000000	0.0000000000	27.9310694751	1.0000000000	637.4016786714	1.0000000000	0.0000000000	0.0000000000
0.3700000000	0.0000000000	1.0000000000	0.0000000000	1.0000000000	0.0000000000	0.0000000000	32.5614985363	1.0000000000	649.1585705830	1.0000000000	0.0000000000	0.0000000000
0.3800000000	0.0000000000	1.0000000000	0.0000000000	1.0000000000	0.0000000000	0.0000000000	37.1440508492	1.0000000000	661.5032184219	1.0000000000	0.0000000000	0.0000000000
0.3900000000	0.9399201654	1.0000000000	0.1193318310	1.0000000000	0.0000000000	0.0000000000	41.8180872816	1.0000000000	673.9219603846	1.0000000000	0.0000000000	0.0000000000
0.4000000000	0.7604664453	1.0000000000	0.2435908576	1.0000000000	0.0000000000	0.0000000000	46.7875420277	1.0000000000	685.9501774008	1.0000000000	0.0000000000	0.0000000000
0.4100000000	0.4531452770	1.0000000000	0.1750200086	1.0000000000	0.0000000000	0.0000000000	52.0849022460	1.0000000000	697.3637010514	1.0000000000	0.0000000000	0.0000000000
0.4200000000	0.0000000000	1.0000000000	0.0000000000	1.0000000000	0.0000000000	0.0000000000	57.5115857555	1.0000000000	708.2417656741	1.0000000000	0.0000000000	0.0000000000
0.4300000000	0.0000000000	1.0000000000	0.0000000000	1.0000000000	0.0000000000	0.0000000000	63.0053252536	1.0000000000	718.3309424842	1.0000000000	0.0000000000	0.0000000000
0.4400000000	0.0000000000	1.0000000000	0.0000000000	1.0000000000	0.0000000000	0.0000000000	68.5716752142	1.0000000000	727.0243713268	1.0000000000	0.0000000000	0.0000000000
0.4500000000	0.0000000000	1.0000000000	0.0000000000	1.0000000000	0.0000000000	0.0000000000	74.1630943035	1.0000000000	734.3571432791	1.0000000000	0.0000000000	0.0000000000
0.4600000000	0.0000000000	1.0000000000	0.0000000000	1.0000000000	0.0000000000	0.0000000000	80.0175379825	1.0000000000	740.8038934090	1.0000000000	0.0000000000	0.0000000000
0.4700000000	0.0000000000	1.0000000000	0.0000000000	1.0000000000	0.0000000000	0.0000000000	86.4263874373	1.0000000000	746.0497527720	1.0000000000	0.0000000000	0.0000000000
0.4800000000	10.9095826358	1.0000000000	6.3122580493	1.0000000000	0.0000000000	0.0000000000	93.5484125474	1.0000000000	748.7686256977	1.0000000000	0.0000000000	0.0000000000
0.4900000000	20.3636946827	1.0000000000	27.2224473056	1.0000000000	0.0000000000	0.0000000000	101.4513216675	1.0000000000	747.2302047045	1.0000000000	0.0000000000	0.0000000000
0.5000000000	29.2275629902	1.0000000000	63.2380276696	1.0000000000	0.0000000000	0.0000000000	109.8195215687	1.0000000000	739.4557028912	1.0000000000	0.0000000000	0.0000000000
0.5100000000	30.7339667809	1.0000000000	116.0628765438	1.0000000000	0.0000000000	0.0000000000	117.7669894791	1.0000000000	723.1705472664	1.0000000000	0.0000000000	0.0000000000
0.5200000000	20.1814258993	1.0000000000	185.8283433112	1.0000000000	0.0000000000	0.0000000000	124.3922588720	1.0000000000	696.1245156136	1.0000000000	0.0000000000	0.0000000000
0.5300000000	-0.5479078109	1.0000000000	270.9935316160	1.0000000000	0.0000000000	0.0000000000	129.0904343318	1.0000000000	656.9811679079	1.0000000000	0.0000000000	0.0000000000
0.5400000000	-26.3631693053	1.0000000000	365.5479757227	1.0000000000	0.0000000000	0.0000000000	131.0085202113	1.0000000000	605.9993589436	1.0000000000	0.0000000000	0.0000000000
0.5500000000	-53.3028216252	1.0000000000	457.8327889570	1.0000000000	0.0000000000	0.0000000000	129.0438267288	1.0000000000	544.4512477157	1.0000000000	0.0000000000	0.0000000000
0.5600000000	-77.7093229134	1.0000000000	535.4414158054	1.0000000000	0.0000000000	0.0000000000	122.3854574893	1.0000000000	474.1633470415	1.0000000000	0.0000000000	0.0000000000
0.5700000000	-96.3391236128	1.0000000000	591.5900094631	1.0000000000	0.0000000000	0.0000000000	111.1860317838	1.0000000000	398.0946325450	1.0000000000	0.0000000000	0.0000000000
0.5800000000	-108.4916671013	1.0000000000	627.5784885333	1.0000000000	0.0000000000	0.0000000000	96.1333476355	1.0000000000	320.4545336916	1.0000000000	0.0000000000	0.0000000000
0.5900000000	-115.0686393023	1.0000000000	650.3909721398	1.0000000000	0.0000000000	0.0000000000	78.3352178519	1.0000000000	245.8531597953	1.0000000000	0.0000000000	0.0000000000
0.6000000000	-117.2168868734	1.0000000000	667.7350803367	1.0000000000	0.0000000000	0.0000000000	59.5905619465	1.0000000000	178.4400633735	1.0000000000	0.0000000000	0.0000000000
0.6100000000	-116.4823276932	1.0000000000	684.3204798217	1.0000000000	0.0000000000	0.0000000000	41.8345575685	1.0000000000	120.8669317365	1.0000000000	0.0000000000	0.0000000000
0.6200000000	-113.9329831196	1.0000000000	701.5696170516	1.0000000000	0.0000000000	0.0000000000	26.5913447917	1.0000000000	74.0515305019	1.0000000000	0.0000000000	0.0000000000
